# xmcd
#
# Track frame offsets:
#	150
#	11648
#	23710
#	42203
#	58239
#	72167
#	86249
#	107852
#	125119
#
# Disc length: 1881 seconds
#
# Revision: 0
# Processed by: cddbd v1.5.1PL0 Copyright (c) Steve Scherf et al.
# Submitted via: dBpowerAMP V4.0
#
DISCID=7d075709
DTITLE=Old And In The Way - 1973-03-02 The Record Plant (Early)
DYEAR=73
DGENRE=Bluegrass
TTITLE0=Going ToThe Races
TTITLE1=Dark Hollow
TTITLE2=Katie Dear
TTITLE3=New Camptown Races
TTITLE4=Two Little Boys
TTITLE5=Home Is Where The Heart Is
TTITLE6=Down Where The River Bends
TTITLE7=Knockin' On Your Door
TTITLE8=Old and In The Way Breakdown
EXTD=
EXTT0=
EXTT1=
EXTT2=
EXTT3=
EXTT4=
EXTT5=
EXTT6=
EXTT7=
EXTT8=
PLAYORDER=
